<svg width="512" height="512" viewBox="0 0 512 512" fill="none" xmlns="http://www.w3.org/2000/svg">
<rect width="512" height="512" rx="4" fill="#333C4D"/>
<path d="M53 283.289C53 244.371 81.6949 217.635 116.414 217.635C133.052 217.635 148.484 223.842 157.647 235.298L157.884 220.017H184.41V346.326H157.884L157.647 331.045C148.484 342.5 133.052 348.708 116.414 348.708C81.6949 348.708 53 321.73 53 283.289ZM120.27 321.488C140.52 321.488 156.677 307.409 156.677 283.289C156.677 258.934 140.52 244.848 120.27 244.848C98.8067 244.848 82.9013 260.371 82.9013 283.289C82.9013 305.972 98.8141 321.488 120.27 321.488Z" fill="white"/>
<path d="M249.498 220.018H264.929V246.761H252.391C241.541 246.761 237.197 251.056 237.197 262.042V346.327H207.303V262.775C207.303 233.151 222.246 220.018 249.498 220.018Z" fill="white"/>
<path d="M278.18 162H308.081V346.326H278.18V162Z" fill="white"/>
<path d="M325.189 283.289C325.189 244.848 354.602 217.152 391.979 217.152C429.355 217.152 458.768 244.848 458.768 283.289C458.768 321.73 429.348 349.669 391.979 349.669C354.61 349.669 325.189 321.73 325.189 283.289ZM391.979 321.73C412.954 321.73 428.867 305.973 428.867 283.289C428.867 260.606 412.954 244.819 391.979 244.819C371.004 244.819 355.091 260.577 355.091 283.26C355.091 305.944 371.004 321.73 391.979 321.73Z" fill="white"/>
<path d="M456.29 178.447H422.325C404.236 178.447 388.805 193.487 388.805 211.428H423.043C431.851 211.363 440.278 207.865 446.5 201.692C452.722 195.52 456.239 187.169 456.29 178.447V178.447Z" fill="#34D399"/>
</svg>
