<svg width="65" height="30" viewBox="0 0 65 30" fill="none" xmlns="http://www.w3.org/2000/svg">
<g clip-path="url(#clip0_1356_213192)">
<path d="M0.5 19.3888C0.5 13.1676 5.0259 8.89362 10.502 8.89362C13.1263 8.89362 15.5603 9.88596 17.0055 11.7172L17.0428 9.27439H21.2267V29.4657H17.0428L17.0055 27.023C15.5603 28.8542 13.1263 29.8465 10.502 29.8465C5.0259 29.8465 0.5 25.5339 0.5 19.3888ZM11.1102 25.4952C14.3042 25.4952 16.8525 23.2445 16.8525 19.3888C16.8525 15.4956 14.3042 13.2438 11.1102 13.2438C7.72486 13.2438 5.21618 15.7252 5.21618 19.3888C5.21618 23.0149 7.72603 25.4952 11.1102 25.4952Z" fill="#1F2937"/>
<path d="M31.4926 9.27438H33.9265V13.5496H31.949C30.2376 13.5496 29.5524 14.2361 29.5524 15.9923V29.4657H24.8374V16.1095C24.8374 11.3739 27.1943 9.27438 31.4926 9.27438Z" fill="#1F2937"/>
<path d="M36.0161 0H40.7323V29.4657H36.0161V0Z" fill="#1F2937"/>
<path d="M43.4313 19.3888C43.4313 13.2438 48.0704 8.81628 53.9656 8.81628C59.8609 8.81628 64.5 13.2438 64.5 19.3888C64.5 25.5339 59.8597 30 53.9656 30C48.0716 30 43.4313 25.5339 43.4313 19.3888ZM53.9656 25.5339C57.274 25.5339 59.7838 23.0149 59.7838 19.3888C59.7838 15.7627 57.274 13.2391 53.9656 13.2391C50.6573 13.2391 48.1475 15.758 48.1475 19.3841C48.1475 23.0102 50.6573 25.5339 53.9656 25.5339Z" fill="#1F2937"/>
<path d="M64.1089 2.62906H58.7519C55.8988 2.62906 53.4648 5.03318 53.4648 7.90126H58.8651C60.2543 7.89081 61.5834 7.3317 62.5648 6.34496C63.5463 5.35822 64.101 4.02325 64.1089 2.62906Z" fill="#34D399"/>
</g>
<defs>
<clipPath id="clip0_1356_213192">
<rect width="64" height="30" fill="white" transform="translate(0.5)"/>
</clipPath>
</defs>
</svg>
